<svg width="159" height="44" viewBox="0 0 159 44" fill="none" xmlns="http://www.w3.org/2000/svg">
<g clip-path="url(#clip0_140_524)">
<path d="M69.3707 16.3634H64.327V10.8992C64.3268 10.8698 64.3197 10.8408 64.3063 10.8144C64.2928 10.7881 64.2734 10.7651 64.2495 10.7473C64.2143 10.719 64.1698 10.7044 64.1243 10.7063H64.0766L60.4996 11.6414C60.4565 11.653 60.4186 11.6782 60.3916 11.713C60.3647 11.7479 60.3502 11.7905 60.3505 11.8343V16.3634H57.4293C57.3765 16.3634 57.3258 16.3835 57.288 16.4195C57.2502 16.4555 57.2281 16.5046 57.2266 16.5563V19.5367C57.2281 19.5884 57.2502 19.6375 57.288 19.6735C57.3258 19.7095 57.3765 19.7296 57.4293 19.7296H60.3505V30.0678C60.3505 32.645 60.8155 34.3222 61.8171 35.3274C62.345 35.8632 62.9849 36.2806 63.6929 36.551C64.401 36.8213 65.1603 36.9382 65.9188 36.8936C67.0477 36.9254 68.173 36.7551 69.2395 36.391C69.277 36.3745 69.3084 36.3472 69.3297 36.3128C69.351 36.2784 69.3611 36.2384 69.3587 36.1982L69.1918 33.5041C69.1916 33.4754 69.1844 33.4473 69.171 33.4219C69.1575 33.3965 69.1381 33.3746 69.1143 33.358C69.079 33.335 69.0375 33.3228 68.9951 33.3229H68.9414C68.2649 33.4874 67.5696 33.566 66.8727 33.5567C65.0842 33.5567 64.327 32.4697 64.327 29.9216V19.7413H69.3707C69.4228 19.7413 69.4729 19.721 69.5098 19.6848C69.5467 19.6486 69.5674 19.5996 69.5674 19.5484V16.5679C69.569 16.5417 69.5651 16.5153 69.556 16.4906C69.5468 16.4658 69.5326 16.4431 69.5142 16.424C69.4957 16.4048 69.4735 16.3895 69.4488 16.3791C69.4241 16.3687 69.3975 16.3634 69.3707 16.3634Z" fill="#0E133D"/>
<path d="M89.1688 31.558V24.1945C89.1688 20.4251 87.8036 15.9251 81.3112 15.9251C78.9427 15.8899 76.612 16.5097 74.5864 17.7134C74.549 17.7372 74.5211 17.7727 74.507 17.8141C74.4929 17.8555 74.4936 17.9004 74.5089 17.9413L75.3375 20.3082C75.3487 20.3353 75.3656 20.3598 75.3872 20.3799C75.4088 20.4001 75.4346 20.4155 75.4627 20.4251H75.5283C75.5687 20.4244 75.6081 20.4122 75.6416 20.39C77.1835 19.4589 78.9578 18.9634 80.7687 18.9582C83.6721 18.9582 85.1446 20.4251 85.1446 23.3296V23.54C77.3347 23.54 73.0423 26.2224 73.0423 31.073C73.0276 32.5728 73.6018 34.0207 74.646 35.1171C75.2688 35.7282 76.0143 36.2059 76.8353 36.5198C77.6563 36.8337 78.5349 36.9769 79.4154 36.9404C80.5819 36.962 81.7384 36.7252 82.7986 36.2476C83.8587 35.77 84.7952 35.0639 85.5381 34.182L85.7885 36.3209C85.7943 36.3679 85.8176 36.4112 85.8539 36.4424C85.8902 36.4737 85.9369 36.4908 85.9852 36.4904H89.3179C89.3473 36.4905 89.3765 36.4842 89.4033 36.4721C89.43 36.46 89.4538 36.4423 89.4729 36.4203C89.4915 36.3988 89.505 36.3734 89.5122 36.3461C89.5194 36.3188 89.5202 36.2902 89.5146 36.2625C89.2578 34.7074 89.1421 33.1331 89.1688 31.558ZM85.2519 29.6587C85.2458 30.0271 85.1794 30.3921 85.0552 30.7398C84.7152 31.6866 84.0768 32.5027 83.2322 33.07C82.3876 33.6374 81.3807 33.9265 80.3573 33.8956C78.7834 33.8956 77.1022 33.0483 77.1022 30.6697C77.1022 27.847 79.7075 26.4152 84.8525 26.4152H85.2519V29.6587Z" fill="#0E133D"/>
<path d="M98.2616 7.15906H94.607C94.495 7.15906 94.4043 7.24802 94.4043 7.35776V36.3093C94.4043 36.419 94.495 36.508 94.607 36.508H98.2616C98.3735 36.508 98.4643 36.419 98.4643 36.3093V7.35776C98.4643 7.24802 98.3735 7.15906 98.2616 7.15906Z" fill="#0E133D"/>
<path d="M119.593 19.2855C118.09 17.0413 115.801 15.9076 112.802 15.9076C107.121 15.9076 103.156 20.3608 103.156 26.7483C103.156 29.7522 104.086 32.2944 105.839 34.0943C107.592 35.8943 110.191 36.8936 113.261 36.8936C115.587 36.9532 117.9 36.529 120.046 35.6489C120.087 35.629 120.119 35.5963 120.139 35.556C120.158 35.5158 120.163 35.4702 120.153 35.4268L119.557 32.8554C119.549 32.8272 119.535 32.8007 119.517 32.7777C119.499 32.7546 119.476 32.7353 119.45 32.721C119.42 32.7155 119.39 32.7155 119.36 32.721C119.333 32.7155 119.304 32.7155 119.277 32.721C117.542 33.4391 115.668 33.78 113.786 33.7203C109.726 33.7203 107.228 31.3126 107.085 27.2626H121.024C121.073 27.2642 121.122 27.2468 121.158 27.2141C121.195 27.1814 121.217 27.1359 121.22 27.0873V26.9178C121.595 24.2657 121.02 21.5682 119.593 19.2855ZM107.121 24.3055C107.437 22.19 108.909 18.8705 112.486 18.8705C113.102 18.8414 113.717 18.9369 114.294 19.151C114.87 19.3652 115.396 19.6935 115.837 20.1153C117.178 21.4595 117.351 23.4757 117.363 24.3055H107.121Z" fill="#0E133D"/>
<path d="M135.695 15.9251C134.4 15.893 133.117 16.1859 131.969 16.7761C130.822 17.3662 129.847 18.234 129.137 19.2971L128.958 16.5563C128.959 16.5317 128.955 16.5072 128.946 16.4842C128.937 16.4613 128.924 16.4402 128.907 16.4223C128.89 16.4044 128.869 16.39 128.846 16.3799C128.823 16.3698 128.799 16.3642 128.774 16.3634H125.53C125.503 16.362 125.475 16.3664 125.449 16.3765C125.424 16.3866 125.4 16.4021 125.381 16.4219C125.361 16.4414 125.346 16.4653 125.336 16.4917C125.327 16.518 125.324 16.5461 125.328 16.5738C125.441 18.0933 125.495 19.6828 125.495 21.8977V36.3092C125.495 36.3604 125.515 36.4094 125.552 36.4456C125.589 36.4818 125.639 36.5021 125.691 36.5021H129.358C129.41 36.5021 129.46 36.4818 129.497 36.4456C129.534 36.4094 129.555 36.3604 129.555 36.3092V24.4399C129.545 23.8951 129.626 23.3524 129.793 22.8328C130.094 21.8301 130.715 20.9485 131.565 20.3173C132.415 19.6862 133.449 19.3389 134.515 19.3264C138.199 19.3264 138.974 22.3886 138.974 24.96V36.3092C138.974 36.3604 138.995 36.4094 139.032 36.4456C139.069 36.4818 139.119 36.5021 139.171 36.5021H142.831C142.884 36.5021 142.935 36.482 142.973 36.446C143.01 36.4099 143.033 36.3609 143.034 36.3092V24.5451C143.01 16.3634 136.917 15.9251 135.695 15.9251Z" fill="#0E133D"/>
<path d="M158.803 17.181H153.76V11.7168C153.759 11.6873 153.752 11.6583 153.739 11.632C153.725 11.6057 153.706 11.5827 153.682 11.5648C153.649 11.5379 153.606 11.5234 153.563 11.5239H153.509L149.932 12.459C149.889 12.4706 149.851 12.4957 149.824 12.5306C149.797 12.5655 149.783 12.6081 149.783 12.6518V17.181H146.862C146.809 17.181 146.758 17.2011 146.721 17.2371C146.683 17.2731 146.661 17.3222 146.659 17.3739V20.3543C146.661 20.406 146.683 20.4551 146.721 20.4911C146.758 20.5271 146.809 20.5472 146.862 20.5472H149.783V30.8853C149.783 33.4626 150.248 35.1398 151.25 36.145C151.778 36.6808 152.418 37.0982 153.126 37.3685C153.834 37.6389 154.593 37.7558 155.351 37.7112C156.48 37.7435 157.606 37.5732 158.672 37.2086C158.71 37.1917 158.742 37.1645 158.764 37.1303C158.786 37.0961 158.798 37.0563 158.797 37.0158L158.63 34.3217C158.628 34.2929 158.619 34.265 158.605 34.2399C158.59 34.2147 158.571 34.1928 158.547 34.1756C158.512 34.1526 158.47 34.1404 158.428 34.1405H158.374C157.698 34.3054 157.002 34.384 156.305 34.3743C154.517 34.3743 153.76 33.2873 153.76 30.7392V20.5589H158.803C158.855 20.5589 158.905 20.5386 158.942 20.5024C158.979 20.4662 159 20.4172 159 20.366V17.3855C159.002 17.3593 158.998 17.3329 158.989 17.3081C158.979 17.2834 158.965 17.2607 158.947 17.2416C158.928 17.2224 158.906 17.2071 158.881 17.1967C158.857 17.1863 158.83 17.181 158.803 17.181Z" fill="#0E133D"/>
<path d="M22.446 44.0059C34.8426 44.0059 44.892 34.1548 44.892 22.0029C44.892 9.85105 34.8426 0 22.446 0C10.0494 0 0 9.85105 0 22.0029C0 34.1548 10.0494 44.0059 22.446 44.0059Z" fill="#EF1630"/>
<path d="M16.1619 13.418H12.0006C11.6977 13.418 11.4521 13.6587 11.4521 13.9556V36.1339C11.4521 36.4308 11.6977 36.6715 12.0006 36.6715H16.1619C16.4649 36.6715 16.7104 36.4308 16.7104 36.1339V13.9556C16.7104 13.6587 16.4649 13.418 16.1619 13.418Z" fill="white"/>
<path d="M34.774 13.4414H29.3607V7.5155C29.3617 7.43286 29.3427 7.35117 29.3054 7.27705C29.2681 7.20293 29.2136 7.13846 29.1461 7.08888C29.0512 7.01523 28.9333 6.976 28.8122 6.97785H28.6751L24.6092 8.04147C24.4921 8.07214 24.3884 8.13961 24.3141 8.23355C24.2398 8.3275 24.199 8.44273 24.1978 8.56159V13.4414H20.5612C20.4157 13.4414 20.2762 13.498 20.1733 13.5989C20.0705 13.6997 20.0127 13.8364 20.0127 13.979V17.3511C20.0127 17.4937 20.0705 17.6304 20.1733 17.7312C20.2762 17.8321 20.4157 17.8887 20.5612 17.8887H24.1978V29.121C24.1978 32.1249 24.7583 34.1002 25.9506 35.3216C27.143 36.543 28.7526 37.2151 30.8452 37.2151C32.1704 37.255 33.4918 37.0569 34.7442 36.6306C34.8495 36.5866 34.9384 36.5121 34.9992 36.417C35.0599 36.3219 35.0895 36.2109 35.084 36.0988L34.8932 33.0424C34.8861 32.9626 34.8623 32.8852 34.8233 32.8148C34.7843 32.7444 34.731 32.6826 34.6667 32.6333C34.5714 32.5705 34.4596 32.536 34.3448 32.534C34.2972 32.5283 34.2492 32.5283 34.2017 32.534C33.4622 32.722 32.7 32.8105 31.9362 32.7969C30.6008 32.7969 29.3607 32.3353 29.3607 28.9749V17.8712H34.774C34.9195 17.8712 35.059 17.8145 35.1618 17.7137C35.2647 17.6129 35.3225 17.4761 35.3225 17.3335V13.9557C35.3163 13.8172 35.2558 13.6863 35.1536 13.5905C35.0514 13.4947 34.9154 13.4413 34.774 13.4414Z" fill="white"/>
<path d="M14.081 5.16614C13.474 5.16614 12.8807 5.34251 12.3759 5.67297C11.8711 6.00342 11.4776 6.47312 11.245 7.02273C11.0125 7.57234 10.9513 8.17719 11.0693 8.76086C11.1873 9.34452 11.4791 9.88081 11.9079 10.302C12.3367 10.7231 12.8832 11.0102 13.4784 11.127C14.0736 11.2438 14.6907 11.185 15.2519 10.9581C15.813 10.7312 16.2929 10.3464 16.631 9.85219C16.9691 9.35801 17.1502 8.77669 17.1513 8.18168C17.1529 7.78574 17.0746 7.39339 16.921 7.02722C16.7673 6.66104 16.5413 6.32826 16.2559 6.04801C15.9706 5.76776 15.6316 5.54557 15.2583 5.39423C14.8851 5.24288 14.485 5.16537 14.081 5.16614Z" fill="white"/>
</g>
<defs>
<clipPath id="clip0_140_524">
<rect width="159" height="44" fill="white"/>
</clipPath>
</defs>
</svg>
